<svg width="64" height="64" viewBox="0 0 64 64" fill="none" xmlns="http://www.w3.org/2000/svg">
<g clip-path="url(#clip0_12775_249084)">
<rect width="64" height="64" rx="32" fill="#070518"/>
<g clip-path="url(#clip1_12775_249084)">
<path fill-rule="evenodd" clip-rule="evenodd" d="M21.0329 68.0004C21.2642 66.1915 21.5469 63.5113 21.5013 61.5004C21.4814 60.6191 21.3959 59.7107 21.3077 58.7731C21.1306 56.8896 20.9423 54.888 21.2513 52.7504C21.6846 49.7534 23.5013 47.5004 23.5013 47.5004L16.0013 42.5004C16.0013 42.5004 13.9582 41.2975 13.7513 40.0004C13.6139 39.1386 13.9924 38.5825 14.4239 37.9486C14.6199 37.6605 14.8269 37.3565 15.0013 37.0004C16.2999 34.3497 19.2513 30.7504 19.2513 30.7504C19.2513 30.7504 19.8698 27.4641 21.2513 26.0004C21.2751 25.9752 21.2985 25.9503 21.3217 25.9258C21.9513 25.2579 22.3651 24.8188 23.2513 24.5004C23.8102 24.2995 24.7513 24.2504 24.7513 24.2504V21.7504L26.5013 17.2504L28.0013 11.2504C28.0013 11.2504 29.0013 8.50037 31.0013 8.00037C33.0013 7.50036 34.2513 8.25036 35.7513 9.50037C37.2513 10.7504 37.7513 11.5004 38.0013 12.2504C38.0013 12.2504 38.5188 13.9225 38.0013 14.7504C37.888 14.9317 37.7544 15.0349 37.6193 15.1391C37.4928 15.2368 37.3651 15.3355 37.2513 15.5004C37.0386 15.8088 37.0287 16.0133 37.0159 16.2759C37.0125 16.3456 37.009 16.4194 37.0013 16.5004C36.9933 16.5856 36.9922 16.6857 36.9911 16.7927C36.9887 17.0237 36.9859 17.2867 36.9118 17.5004C36.7001 18.1103 36.5691 18.3336 36.2513 18.7504C35.8596 19.2641 35.5013 19.7504 35.0013 20.5004C34.9293 20.6084 34.8007 21.2531 34.7601 21.4565C34.7564 21.475 34.7535 21.4899 34.7513 21.5004V21.5112C34.7513 22.0007 34.7513 22.0242 35.0013 22.5004C35.296 23.0616 35.7412 23.2235 36.3085 23.4297C36.3713 23.4525 36.4356 23.4759 36.5013 23.5004C37.0604 23.7088 37.6671 23.6085 38.196 23.521C38.6189 23.451 38.9921 23.3893 39.2513 23.5004C39.8347 23.7504 41.2513 24.8004 42.2513 27.0004C43.2513 29.2004 46.0013 33.0837 47.2513 34.7504C48.168 35.667 49.8513 37.7504 49.2513 38.7504C48.6513 39.7504 44.668 43.667 42.7513 45.5004C42.7513 45.5004 43.0013 46.2504 41.5013 47.2504C40.0013 48.2504 39.7513 48.5004 39.7513 48.5004L40.5013 51.0004C40.5013 51.0004 41.5721 53.8939 42.2513 55.7504C42.6798 56.9214 43.071 57.9126 43.4398 58.8472C44.1764 60.7136 44.8239 62.3544 45.5013 64.7504C45.7868 65.7602 46.125 67.1529 46.3259 68.0004H38.9608C38.0903 66.3803 36.3635 63.1242 35.2513 60.7504C34.4354 59.0089 33.2513 56.2504 33.2513 56.2504L31.0013 54.7504C31.0013 54.7504 30.0312 59.9995 29.0013 63.2504C28.5329 64.729 27.7856 66.6352 27.2299 68.0004H21.0329ZM38.7513 40.5004L39.0013 44.2504L40.2513 43.2504L41.2513 43.5004C41.2513 43.5004 42.5202 42.171 43.2513 41.2504C44.3459 39.872 45.7513 37.5004 45.7513 37.5004C45.7513 37.5004 44.3288 36.1774 43.5013 35.2504C42.435 34.0558 41.0013 32.0004 41.0013 32.0004C41.0013 32.0004 40.8255 32.8364 40.5013 33.2504C40.2004 33.6347 39.5013 34.0004 39.5013 34.0004C39.5013 34.0004 39.5898 35.6801 39.5013 36.7504C39.3782 38.2388 38.7513 40.5004 38.7513 40.5004ZM24.5013 44.7504C24.5013 44.7504 21.883 43.2982 20.5013 42.0004C19.3897 40.9563 18.0013 39.0004 18.0013 39.0004C18.0013 39.0004 19.7944 35.8173 21.2513 34.0004C22.1593 32.868 23.7513 31.2504 23.7513 31.2504C23.7513 31.2504 23.4695 33.6324 24.0013 35.0004C24.384 35.9846 25.5013 37.2504 25.5013 37.2504L25.0013 34.5004L27.0013 37.5004C27.0013 37.5004 26.2141 35.7074 26.2513 34.5004C26.2696 33.9068 26.5013 33.0004 26.5013 33.0004L28.0013 36.5004L29.2513 39.2504C29.2513 39.2504 28.8902 40.5124 28.5013 41.2504C27.9185 42.3565 26.5013 43.7504 26.5013 43.7504H25.7513L24.5013 44.7504Z" fill="white"/>
<path fill-rule="evenodd" clip-rule="evenodd" d="M21.0329 68.0004C21.2642 66.1915 21.5469 63.5113 21.5013 61.5004C21.4814 60.6191 21.3959 59.7107 21.3077 58.7731C21.1306 56.8896 20.9423 54.888 21.2513 52.7504C21.6846 49.7534 23.5013 47.5004 23.5013 47.5004L16.0013 42.5004C16.0013 42.5004 13.9582 41.2975 13.7513 40.0004C13.6139 39.1386 13.9924 38.5825 14.4239 37.9486C14.6199 37.6605 14.8269 37.3565 15.0013 37.0004C16.2999 34.3497 19.2513 30.7504 19.2513 30.7504C19.2513 30.7504 19.8698 27.4641 21.2513 26.0004C21.2751 25.9752 21.2985 25.9503 21.3217 25.9258C21.9513 25.2579 22.3651 24.8188 23.2513 24.5004C23.8102 24.2995 24.7513 24.2504 24.7513 24.2504V21.7504L26.5013 17.2504L28.0013 11.2504C28.0013 11.2504 29.0013 8.50037 31.0013 8.00037C33.0013 7.50036 34.2513 8.25036 35.7513 9.50037C37.2513 10.7504 37.7513 11.5004 38.0013 12.2504C38.0013 12.2504 38.5188 13.9225 38.0013 14.7504C37.888 14.9317 37.7544 15.0349 37.6193 15.1391C37.4928 15.2368 37.3651 15.3355 37.2513 15.5004C37.0386 15.8088 37.0287 16.0133 37.0159 16.2759C37.0125 16.3456 37.009 16.4194 37.0013 16.5004C36.9933 16.5856 36.9922 16.6857 36.9911 16.7927C36.9887 17.0237 36.9859 17.2867 36.9118 17.5004C36.7001 18.1103 36.5691 18.3336 36.2513 18.7504C35.8596 19.2641 35.5013 19.7504 35.0013 20.5004C34.9293 20.6084 34.8007 21.2531 34.7601 21.4565C34.7564 21.475 34.7535 21.4899 34.7513 21.5004V21.5112C34.7513 22.0007 34.7513 22.0242 35.0013 22.5004C35.296 23.0616 35.7412 23.2235 36.3085 23.4297C36.3713 23.4525 36.4356 23.4759 36.5013 23.5004C37.0604 23.7088 37.6671 23.6085 38.196 23.521C38.6189 23.451 38.9921 23.3893 39.2513 23.5004C39.8347 23.7504 41.2513 24.8004 42.2513 27.0004C43.2513 29.2004 46.0013 33.0837 47.2513 34.7504C48.168 35.667 49.8513 37.7504 49.2513 38.7504C48.6513 39.7504 44.668 43.667 42.7513 45.5004C42.7513 45.5004 43.0013 46.2504 41.5013 47.2504C40.0013 48.2504 39.7513 48.5004 39.7513 48.5004L40.5013 51.0004C40.5013 51.0004 41.5721 53.8939 42.2513 55.7504C42.6798 56.9214 43.071 57.9126 43.4398 58.8472C44.1764 60.7136 44.8239 62.3544 45.5013 64.7504C45.7868 65.7602 46.125 67.1529 46.3259 68.0004H38.9608C38.0903 66.3803 36.3635 63.1242 35.2513 60.7504C34.4354 59.0089 33.2513 56.2504 33.2513 56.2504L31.0013 54.7504C31.0013 54.7504 30.0312 59.9995 29.0013 63.2504C28.5329 64.729 27.7856 66.6352 27.2299 68.0004H21.0329ZM38.7513 40.5004L39.0013 44.2504L40.2513 43.2504L41.2513 43.5004C41.2513 43.5004 42.5202 42.171 43.2513 41.2504C44.3459 39.872 45.7513 37.5004 45.7513 37.5004C45.7513 37.5004 44.3288 36.1774 43.5013 35.2504C42.435 34.0558 41.0013 32.0004 41.0013 32.0004C41.0013 32.0004 40.8255 32.8364 40.5013 33.2504C40.2004 33.6347 39.5013 34.0004 39.5013 34.0004C39.5013 34.0004 39.5898 35.6801 39.5013 36.7504C39.3782 38.2388 38.7513 40.5004 38.7513 40.5004ZM24.5013 44.7504C24.5013 44.7504 21.883 43.2982 20.5013 42.0004C19.3897 40.9563 18.0013 39.0004 18.0013 39.0004C18.0013 39.0004 19.7944 35.8173 21.2513 34.0004C22.1593 32.868 23.7513 31.2504 23.7513 31.2504C23.7513 31.2504 23.4695 33.6324 24.0013 35.0004C24.384 35.9846 25.5013 37.2504 25.5013 37.2504L25.0013 34.5004L27.0013 37.5004C27.0013 37.5004 26.2141 35.7074 26.2513 34.5004C26.2696 33.9068 26.5013 33.0004 26.5013 33.0004L28.0013 36.5004L29.2513 39.2504C29.2513 39.2504 28.8902 40.5124 28.5013 41.2504C27.9185 42.3565 26.5013 43.7504 26.5013 43.7504H25.7513L24.5013 44.7504Z" fill="white"/>
<path fill-rule="evenodd" clip-rule="evenodd" d="M21.0329 68.0004C21.2642 66.1915 21.5469 63.5113 21.5013 61.5004C21.4814 60.6191 21.3959 59.7107 21.3077 58.7731C21.1306 56.8896 20.9423 54.888 21.2513 52.7504C21.6846 49.7534 23.5013 47.5004 23.5013 47.5004L16.0013 42.5004C16.0013 42.5004 13.9582 41.2975 13.7513 40.0004C13.6139 39.1386 13.9924 38.5825 14.4239 37.9486C14.6199 37.6605 14.8269 37.3565 15.0013 37.0004C16.2999 34.3497 19.2513 30.7504 19.2513 30.7504C19.2513 30.7504 19.8698 27.4641 21.2513 26.0004C21.2751 25.9752 21.2985 25.9503 21.3217 25.9258C21.9513 25.2579 22.3651 24.8188 23.2513 24.5004C23.8102 24.2995 24.7513 24.2504 24.7513 24.2504V21.7504L26.5013 17.2504L28.0013 11.2504C28.0013 11.2504 29.0013 8.50037 31.0013 8.00037C33.0013 7.50036 34.2513 8.25036 35.7513 9.50037C37.2513 10.7504 37.7513 11.5004 38.0013 12.2504C38.0013 12.2504 38.5188 13.9225 38.0013 14.7504C37.888 14.9317 37.7544 15.0349 37.6193 15.1391C37.4928 15.2368 37.3651 15.3355 37.2513 15.5004C37.0386 15.8088 37.0287 16.0133 37.0159 16.2759C37.0125 16.3456 37.009 16.4194 37.0013 16.5004C36.9933 16.5856 36.9922 16.6857 36.9911 16.7927C36.9887 17.0237 36.9859 17.2867 36.9118 17.5004C36.7001 18.1103 36.5691 18.3336 36.2513 18.7504C35.8596 19.2641 35.5013 19.7504 35.0013 20.5004C34.9293 20.6084 34.8007 21.2531 34.7601 21.4565C34.7564 21.475 34.7535 21.4899 34.7513 21.5004V21.5112C34.7513 22.0007 34.7513 22.0242 35.0013 22.5004C35.296 23.0616 35.7412 23.2235 36.3085 23.4297C36.3713 23.4525 36.4356 23.4759 36.5013 23.5004C37.0604 23.7088 37.6671 23.6085 38.196 23.521C38.6189 23.451 38.9921 23.3893 39.2513 23.5004C39.8347 23.7504 41.2513 24.8004 42.2513 27.0004C43.2513 29.2004 46.0013 33.0837 47.2513 34.7504C48.168 35.667 49.8513 37.7504 49.2513 38.7504C48.6513 39.7504 44.668 43.667 42.7513 45.5004C42.7513 45.5004 43.0013 46.2504 41.5013 47.2504C40.0013 48.2504 39.7513 48.5004 39.7513 48.5004L40.5013 51.0004C40.5013 51.0004 41.5721 53.8939 42.2513 55.7504C42.6798 56.9214 43.071 57.9126 43.4398 58.8472C44.1764 60.7136 44.8239 62.3544 45.5013 64.7504C45.7868 65.7602 46.125 67.1529 46.3259 68.0004H38.9608C38.0903 66.3803 36.3635 63.1242 35.2513 60.7504C34.4354 59.0089 33.2513 56.2504 33.2513 56.2504L31.0013 54.7504C31.0013 54.7504 30.0312 59.9995 29.0013 63.2504C28.5329 64.729 27.7856 66.6352 27.2299 68.0004H21.0329ZM38.7513 40.5004L39.0013 44.2504L40.2513 43.2504L41.2513 43.5004C41.2513 43.5004 42.5202 42.171 43.2513 41.2504C44.3459 39.872 45.7513 37.5004 45.7513 37.5004C45.7513 37.5004 44.3288 36.1774 43.5013 35.2504C42.435 34.0558 41.0013 32.0004 41.0013 32.0004C41.0013 32.0004 40.8255 32.8364 40.5013 33.2504C40.2004 33.6347 39.5013 34.0004 39.5013 34.0004C39.5013 34.0004 39.5898 35.6801 39.5013 36.7504C39.3782 38.2388 38.7513 40.5004 38.7513 40.5004ZM24.5013 44.7504C24.5013 44.7504 21.883 43.2982 20.5013 42.0004C19.3897 40.9563 18.0013 39.0004 18.0013 39.0004C18.0013 39.0004 19.7944 35.8173 21.2513 34.0004C22.1593 32.868 23.7513 31.2504 23.7513 31.2504C23.7513 31.2504 23.4695 33.6324 24.0013 35.0004C24.384 35.9846 25.5013 37.2504 25.5013 37.2504L25.0013 34.5004L27.0013 37.5004C27.0013 37.5004 26.2141 35.7074 26.2513 34.5004C26.2696 33.9068 26.5013 33.0004 26.5013 33.0004L28.0013 36.5004L29.2513 39.2504C29.2513 39.2504 28.8902 40.5124 28.5013 41.2504C27.9185 42.3565 26.5013 43.7504 26.5013 43.7504H25.7513L24.5013 44.7504Z" fill="url(#paint0_linear_12775_249084)"/>
</g>
<mask id="mask0_12775_249084" style="mask-type:alpha" maskUnits="userSpaceOnUse" x="0" y="63" width="64" height="1">
<rect width="64" height="1" transform="matrix(1 0 0 -1 0 64)" fill="#D9D9D9"/>
</mask>
<g mask="url(#mask0_12775_249084)">
<rect y="62" width="64" height="2" fill="#070518"/>
</g>
</g>
<rect x="1" y="1" width="62" height="62" rx="31" stroke="url(#paint1_linear_12775_249084)" stroke-width="2"/>
<defs>
<linearGradient id="paint0_linear_12775_249084" x1="31.5501" y1="7.84375" x2="31.5501" y2="68.0004" gradientUnits="userSpaceOnUse">
<stop stop-color="#FA516C"/>
<stop offset="1" stop-color="#FDB365"/>
</linearGradient>
<linearGradient id="paint1_linear_12775_249084" x1="32" y1="0" x2="32" y2="64" gradientUnits="userSpaceOnUse">
<stop stop-color="#FA516C"/>
<stop offset="1" stop-color="#FDB365"/>
</linearGradient>
<clipPath id="clip0_12775_249084">
<rect width="64" height="64" rx="32" fill="white"/>
</clipPath>
<clipPath id="clip1_12775_249084">
<rect width="64" height="64" rx="32" fill="white"/>
</clipPath>
</defs>
</svg>
