<svg width="45" height="67" viewBox="0 0 45 67" fill="none" xmlns="http://www.w3.org/2000/svg">
<path d="M36.217 22.5828C36.5082 21.4961 37.5798 20.8774 38.6665 21.1686C39.7531 21.4598 40.3719 22.5314 40.0807 23.6181L32.672 51.2677C30.4397 59.5988 21.5366 64.3308 13.3112 61.2209C6.14015 58.523 2.45384 50.5471 4.45969 43.0612L12.9037 11.5479C14.5213 5.51083 21.0072 2.07235 27.0032 4.32603C32.1864 6.2325 34.8768 12.1298 33.4533 17.4423L26.3034 44.126C25.3005 47.869 21.2317 50.014 17.465 48.6165C14.1813 47.3484 12.5753 43.6829 13.4812 40.3021L19.434 18.0858C19.7252 16.9992 20.9176 16.4128 21.8835 16.6716C22.9702 16.9628 23.5889 18.0344 23.2977 19.1211L17.2478 41.6996C16.892 43.0278 17.7758 44.5587 19.2247 44.9469C20.5529 45.3028 22.0838 44.4189 22.4397 43.0908L29.6866 16.0448C30.7219 12.1811 28.2707 8.28911 24.2776 7.7368C20.8322 7.07241 17.5762 9.56463 16.6703 12.9454L8.16163 44.7002C6.54401 50.7372 10.4418 56.958 16.7613 58.0043C22.2033 58.9448 27.4819 55.1828 28.9054 49.8702L36.217 22.5828Z" fill="#B587FF"/>
</svg>
